My upload speed is slow so give it some time, be patient, and SEED!

Japanese audio is only Stereo because that is what is on the Blu-ray.

G:Blood-CS01E01 - Ama Tsukase.mkv
   General
      Unique ID : 174468411755135686347836410325422529788 (0x834164D3AC8EFDC3B8359BADC1935CFC)
      Complete name : G:Blood-CS01E01 - Ama Tsukase.mkv
      Format : Matroska
      Format version : Version 4 / Version 2
      File size : 977 MiB
      Duration : 24mn 9s
      Overall bit rate : 5 658 Kbps
      Movie name : BLOOD_C_CS_D1
      Encoded date : UTC 2010-02-22 21:41:31
      Writing application : mkvmerge v5.9.0 ('On The Loose') built on Dec  9 2012 15:37:01
      Writing library : libebml v1.3.0 + libmatroska v1.4.0
      Attachment : Yes
   Video #1
      ID : 1
      Format : AVC
      Format/Info : Advanced Video Codec
      Format profile : High@L5.0
      Format settings, CABAC : Yes
      Format settings, ReFrames : 5 frames
      Muxing mode : Header stripping
      Codec ID : V_MPEG4/ISO/AVC
      Duration : 24mn 9s
      Bit rate : 5 000 Kbps
      Width : 1 920 pixels
      Height : 1 072 pixels
      Display aspect ratio : 16:9
      Frame rate mode : Constant
      Frame rate : 23.976 fps
      Color space : YUV
      Chroma subsampling : 4:2:0
      Bit depth : 8 bits
      Scan type : Progressive
      Bits/(Pixel*Frame) : 0.101
      Stream size : 847 MiB (87%)
      Writing library : x264 core 128
      Encoding settings : cabac=1 / ref=6 / deblock=1:0:0 / analyse=0x3:0x133 / me=umh / subme=7 / psy=1 / psy_rd=1.00:0.00 / mixed_ref=1 / me_range=64 / chroma_me=1 / trellis=2 / 8x8dct=1 / cqm=0 / deadzone=21,11 / fast_pskip=1 / chroma_qp_offset=-2 / threads=12 / lookahead_threads=2 / sliced_threads=0 / nr=0 / decimate=1 / interlaced=0 / bluray_compat=0 / constrained_intra=0 / bframes=16 / b_pyramid=1 / b_adapt=2 / b_bias=0 / direct=1 / weightb=1 / open_gop=0 / weightp=2 / keyint=240 / keyint_min=24 / scenecut=40 / intra_refresh=0 / rc_lookahead=50 / rc=2pass / mbtree=1 / bitrate=5000 / ratetol=1.0 / qcomp=0.60 / qpmin=4 / qpmax=69 / qpstep=4 / cplxblur=20.0 / qblur=0.5 / ip_ratio=1.40 / aq=1:1.00
      Language : English
      Default : Yes
      Forced : No
      Color primaries : BT.709
      Transfer characteristics : BT.709
      Matrix coefficients : BT.709
   Audio #2
      ID : 2
      Format : AC-3
      Format/Info : Audio Coding 3
      Mode extension : CM (complete main)
      Format settings, Endianness : Big
      Muxing mode : Header stripping
      Codec ID : A_AC3
      Duration : 24mn 9s
      Bit rate mode : Constant
      Bit rate : 448 Kbps
      Channel(s) : 6 channels
      Channel positions : Front: L C R, Side: L R, LFE
      Sampling rate : 48.0 KHz
      Bit depth : 16 bits
      Compression mode : Lossy
      Stream size : 77.4 MiB (8%)
      Title : 3/2+1
      Language : English
      Default : Yes
      Forced : No
   Audio #3
      ID : 3
      Format : AC-3
      Format/Info : Audio Coding 3
      Mode extension : CM (complete main)
      Format settings, Endianness : Big
      Muxing mode : Header stripping
      Codec ID : A_AC3
      Duration : 24mn 9s
      Bit rate mode : Constant
      Bit rate : 192 Kbps
      Channel(s) : 2 channels
      Channel positions : Front: L R
      Sampling rate : 48.0 KHz
      Bit depth : 16 bits
      Compression mode : Lossy
      Stream size : 33.2 MiB (3%)
      Title : 2/0
      Language : Japanese
      Default : No
      Forced : No
   Text #4
      ID : 4
      Format : PGS
      Muxing mode : zlib
      Codec ID : S_HDMV/PGS
      Codec ID/Info : The same subtitle format used on BDs/HD-DVDs
      Language : English
      Default : Yes
      Forced : No
   Text #5
      ID : 5
      Format : PGS
      Muxing mode : zlib
      Codec ID : S_HDMV/PGS
      Codec ID/Info : The same subtitle format used on BDs/HD-DVDs
      Language : English
      Default : No
      Forced : No